<svg xmlns="http://www.w3.org/2000/svg" x="0px" y="0px"
width="50" height="50"
viewBox="0 0 172 172"
style=" fill:#000000;">
<g fill="none" fill-rule="nonzero"  text-anchor="none" style="mix-blend-mode: normal">
<g fill="#ffffff">
<path d="M86,6.88c-43.65605,0 -79.12,35.46398 -79.12,79.12c0,43.65602 35.46395,79.12 79.12,79.12c43.65605,0 79.12,-35.46398 79.12,-79.12c0,-43.65602 -35.46395,-79.12 -79.12,-79.12zM86,13.76c5.84659,0 11.52292,0.70849 16.96485,2.01563l-5.34813,16.49453c-0.5848,1.80944 0.40447,3.74879 2.21047,4.33359c1.806,0.58824 3.74536,-0.40447 4.3336,-2.21047l5.40859,-16.68938c11.21547,3.86278 21.13023,10.43849 29.07203,18.89984l-15.72859,11.4286c-1.53768,1.118 -1.87722,3.26622 -0.75922,4.8039c1.118,1.53768 3.26622,1.87722 4.8039,0.75922l16.16531,-11.73765c7.45595,9.63918 12.56716,21.17893 14.3714,33.82219h-23.33422c-1.89888,0 -3.44,1.54112 -3.44,3.44c0,1.89888 1.54112,3.44 3.44,3.44h23.99265c0.05329,1.14011 0.08735,2.28656 0.08735,3.44c0,39.9378 -32.30217,72.24 -72.24,72.24c-39.93783,0 -72.24,-32.3022 -72.24,-72.24c0,-1.15344 0.03405,-2.29989 0.08734,-3.44h23.99266c1.89888,0 3.44,-1.54112 3.44,-3.44c0,-1.89888 -1.54112,-3.44 -3.44,-3.44h-23.33422c1.80425,-12.64326 6.91546,-24.183 14.37141,-33.82219l16.16531,11.73765c1.53768,1.118 3.6859,0.77846 4.8039,-0.75922c1.118,-1.53768 0.77846,-3.6859 -0.75922,-4.8039l-15.72859,-11.4286c7.94038,-8.45984 17.8523,-15.03679 29.06531,-18.89984l5.41531,16.68938c0.58824,1.806 2.52432,2.79527 4.32688,2.21047c1.80944,-0.58824 2.79527,-2.52759 2.21047,-4.33359l-5.34813,-16.49453c5.44386,-1.30812 11.1227,-2.01562 16.97156,-2.01562zM86,65.36c-4.3,0 -7.96282,1.73636 -10.31328,4.38063c-2.35046,2.64426 -3.44672,6.03493 -3.44672,9.37937c0,3.34444 1.09626,6.73511 3.44672,9.37937c2.35046,2.64427 6.01328,4.38063 10.31328,4.38063c4.3,0 7.96282,-1.73636 10.31328,-4.38063c1.52059,-1.71066 2.46287,-3.74464 2.9764,-5.86547l27.99031,-17.2739l-33.36531,2.35156c-2.16689,-1.44896 -4.86768,-2.35156 -7.91469,-2.35156zM86,72.24c2.58,0 4.07718,0.84364 5.16672,2.06937c1.08954,1.22574 1.71328,2.99507 1.71328,4.81063c0,1.81556 -0.62374,3.58489 -1.71328,4.81063c-1.08954,1.22573 -2.58672,2.06937 -5.16672,2.06937c-2.58,0 -4.07718,-0.84364 -5.16672,-2.06937c-1.08954,-1.22574 -1.71328,-2.99507 -1.71328,-4.81063c0,-1.81556 0.62374,-3.58489 1.71328,-4.81063c1.08954,-1.22573 2.58672,-2.06937 5.16672,-2.06937zM80.21515,99.75328c-2.85176,0.1548 -5.04261,2.59043 -4.89125,5.44219c0.1548,2.85176 2.59043,5.04261 5.44219,4.89125l0.0739,-0.00672c2.17064,-0.11696 4.33704,-0.1663 6.4836,-0.09406c2.12248,0.1376 4.25587,0.30562 6.28203,0.73906c1.90746,0.35905 3.73864,0.90911 5.42875,1.63937c-2.2423,1.54324 -3.59986,3.48372 -4.34703,4.59563h-8.68735c-2.65611,0 -5.90249,0.3127 -9.02328,0.87344c-3.12079,0.56073 -5.98865,1.23167 -8.3514,2.63375c-0.00449,0.00447 -0.00897,0.00895 -0.01344,0.01344c-2.73798,1.64279 -5.01941,3.99424 -6.06703,6.8464c-0.22552,-0.00775 -0.37004,-0.04703 -0.62485,-0.04703c-6.88,0 -10.32,3.44 -10.32,6.88c0,2.90822 4.95834,3.33691 10.63578,3.4064c1.59549,7.83822 8.55776,13.7936 16.85062,13.7936h20.6736c1.89978,-0.00019 3.43981,-1.54022 3.44,-3.44v-3.44c0,-2.26407 -1.17535,-4.11544 -2.43219,-5.82515c1.65071,-0.62141 3.32513,-1.24629 4.44781,-1.95516c1.46037,-0.92208 2.44828,-1.84284 3.15781,-2.62703c1.57984,0.01479 3.28347,0.0993 5.32797,-0.26875c1.35484,-0.24386 2.76164,-0.61199 4.13203,-1.59234c1.37039,-0.98034 2.56656,-2.94314 2.56656,-4.93156c0,-2.93442 -0.99451,-6.4897 -3.0436,-10.02437c-1.79573,-3.09764 -4.75686,-6.27555 -8.89562,-7.01438c-0.64871,-0.78759 -1.2788,-1.44122 -1.99547,-2.08953c-1.06984,-0.93912 -2.2001,-1.7301 -3.35938,-2.44562c-2.322,-1.4276 -4.76945,-2.47723 -7.24281,-3.27875c-2.48024,-0.84968 -4.98349,-1.37982 -7.49813,-1.84766c-2.50776,-0.39904 -5.01724,-0.65784 -7.525,-0.8264c-0.19608,-0.01032 -0.42533,-0.01032 -0.62485,0zM51.6,99.76c-1.24059,-0.01754 -2.39452,0.63425 -3.01993,1.7058c-0.62541,1.07155 -0.62541,2.39684 0,3.46839c0.62541,1.07155 1.77935,1.72335 3.01993,1.7058h13.76c1.24059,0.01754 2.39452,-0.63425 3.01993,-1.7058c0.62541,-1.07155 0.62541,-2.39684 0,-3.46839c-0.62541,-1.07155 -1.77935,-1.72335 -3.01993,-1.7058zM41.28,113.52c-1.24059,-0.01754 -2.39452,0.63425 -3.01993,1.7058c-0.62541,1.07155 -0.62541,2.39684 0,3.46839c0.62541,1.07155 1.77935,1.72335 3.01993,1.7058h13.76c1.24059,0.01754 2.39452,-0.63425 3.01993,-1.7058c0.62541,-1.07155 0.62541,-2.39684 0,-3.46839c-0.62541,-1.07155 -1.77935,-1.72335 -3.01993,-1.7058zM106.64,116.96c1.77733,0 3.37268,1.34974 4.7636,3.74906c1.28132,2.21028 1.84351,4.93108 1.94844,6.05359c-0.22725,0.09209 -0.35926,0.17618 -0.87344,0.26875c-1.59033,0.28624 -4.00393,0.2486 -5.8386,0.2486c-1.30304,-0.00009 -2.49431,0.736 -3.07719,1.9014c0,0 0.10125,-0.12093 -0.18813,0.20828c-0.28937,0.32917 -0.84607,0.87189 -1.8275,1.49156c-1.95787,1.2362 -5.65181,2.78845 -12.28187,3.21156h-0.0336c-1.1641,0.00336 -2.24755,0.59518 -2.87944,1.57285c-0.6319,0.97768 -0.72653,2.20859 -0.25149,3.27136c0.03111,0.0728 0.06472,0.14451 0.10078,0.215c0.0152,0.03159 0.03088,0.06295 0.04703,0.09406c0.00446,0.00673 0.00893,0.01345 0.01344,0.02015c0.05565,0.09924 0.1162,0.19566 0.1814,0.2889c0,0.00224 0,0.00448 0,0.00672c0.64212,0.92475 1.69606,1.47681 2.82188,1.47813h0.17469h3.44c1.90763,0 3.44,1.53237 3.44,3.44h-17.2336c-5.74192,0 -10.32779,-4.59557 -10.32,-10.34015c0.00171,-0.91188 0.00828,-1.70344 0.01344,-2.28438c0.00516,-0.58094 0.03504,-1.18471 0.01344,-0.88687c0.00523,-0.08276 0.00748,-0.16568 0.00672,-0.2486c0,-1.30662 0.92708,-2.87627 3.35265,-4.3336v-0.00672c0.77426,-0.45624 3.32792,-1.28643 6.04016,-1.77375c2.71861,-0.4883 5.7161,-0.76594 7.80719,-0.76594h10.32c1.01191,0.00071 1.97281,-0.44411 2.62703,-1.2161c2.73639,-3.22894 2.42977,-5.6639 7.69297,-5.6639z">
</path></g></g></svg>