<svg xmlns="http://www.w3.org/2000/svg" x="0px" y="0px"
width="50" height="50"
viewBox="0 0 172 172"
style=" fill:#000000;"><g fill="none" fill-rule="nonzero" stroke="none" stroke-width="1" stroke-linecap="butt" stroke-linejoin="miter" stroke-miterlimit="10" stroke-dasharray="" stroke-dashoffset="0" font-family="none" font-weight="none" font-size="none" text-anchor="none" style="mix-blend-mode: normal"><g fill="#ffffff"><path d="M45.9025,41.28c-24.59062,0 -44.14219,17.93906 -45.9025,41.3875v1.1825c-0.04031,0.7525 -0.1075,1.49156 -0.1075,2.2575c0,0.56438 0.09406,1.08844 0.215,1.6125c0.80625,24.63094 20.00844,43 45.365,43c18.62438,0 28.19188,-11.90562 35.045,-24.6175c-2.92937,-4.71656 -5.57656,-9.46 -8.0625,-14.0825c-6.78594,14.90219 -13.10156,25.2625 -26.9825,25.2625c-18.03312,0 -31.24219,-12.47 -31.9275,-29.7775c0.09406,-0.44344 0.1075,-0.92719 0.1075,-1.3975c0,-17.69719 13.8675,-31.0675 32.25,-31.0675c13.55844,0 21.05656,12.17438 31.82,32.25c10.87094,20.29063 23.20656,43.3225 50.095,43.3225c22.88406,0 42.27438,-18.46312 44.075,-41.065c0.02688,-0.38969 0.08063,-0.79281 0.1075,-1.1825c0.04031,-0.7525 0.1075,-1.505 0.1075,-2.2575c0,-0.56437 -0.09406,-1.08844 -0.215,-1.6125c-0.84656,-24.34875 -20.27719,-43.215 -45.0425,-43.215c-18.89312,0 -29.1325,12.63125 -36.4425,26.1225c1.935,3.38625 3.68188,6.85313 5.4825,10.2125c0.80625,1.505 1.59906,2.88906 2.365,4.3c6.81281,-14.88875 13.74656,-27.1975 28.595,-27.1975c18.01969,0 31.13469,12.77906 31.605,30.4225c-0.04031,0.30906 -0.1075,0.645 -0.1075,0.9675c0,16.38031 -14.24375,30.745 -30.53,30.745c-18.65125,0 -28.01719,-17.48219 -37.9475,-36.0125c-10.41406,-19.44406 -21.19094,-39.56 -43.9675,-39.56z"></path></g></g></svg>