<svg xmlns="http://www.w3.org/2000/svg" x="0px" y="0px"
width="50" height="50"
viewBox="0 0 172 172"
style=" fill:#000000;">
<g fill="none" stroke-dashoffset="0" font-family="none" font-weight="none" font-size="none" text-anchor="none" style="mix-blend-mode: normal">
<g fill="#ffffff"><path d="M86,6.88c-43.65605,0 -79.12,35.46398 -79.12,79.12c0,43.65602 35.46395,79.12 79.12,79.12c43.65605,0 79.12,-35.46398 79.12,-79.12c0,-43.65602 -35.46395,-79.12 -79.12,-79.12zM86,13.76c5.84659,0 11.52292,0.70849 16.96485,2.01563l-5.34813,16.49453c-0.5848,1.80944 0.40447,3.74879 2.21047,4.33359c1.806,0.58824 3.74536,-0.40447 4.3336,-2.21047l5.40859,-16.68938c11.21547,3.86278 21.13023,10.43849 29.07203,18.89984l-15.72859,11.4286c-1.53768,1.118 -1.87722,3.26622 -0.75922,4.8039c1.118,1.53768 3.26622,1.87722 4.8039,0.75922l16.16531,-11.73765c7.45595,9.63918 12.56716,21.17893 14.3714,33.82219h-23.33422c-1.89888,0 -3.44,1.54112 -3.44,3.44c0,1.89888 1.54112,3.44 3.44,3.44h23.99265c0.05329,1.14011 0.08735,2.28656 0.08735,3.44c0,39.9378 -32.30217,72.24 -72.24,72.24c-39.93783,0 -72.24,-32.3022 -72.24,-72.24c0,-1.15344 0.03405,-2.29989 0.08734,-3.44h23.99266c1.89888,0 3.44,-1.54112 3.44,-3.44c0,-1.89888 -1.54112,-3.44 -3.44,-3.44h-23.33422c1.80425,-12.64326 6.91546,-24.183 14.37141,-33.82219l16.16531,11.73765c1.53768,1.118 3.6859,0.77846 4.8039,-0.75922c1.118,-1.53768 0.77846,-3.6859 -0.75922,-4.8039l-15.72859,-11.4286c7.94038,-8.45984 17.8523,-15.03679 29.06531,-18.89984l5.41531,16.68938c0.58824,1.806 2.52432,2.79527 4.32688,2.21047c1.80944,-0.58824 2.79527,-2.52759 2.21047,-4.33359l-5.34813,-16.49453c5.44386,-1.30812 11.1227,-2.01562 16.97156,-2.01562zM44.72,65.36l27.99031,17.2739c0.51353,2.12083 1.45581,4.1548 2.9764,5.86547c2.35046,2.64427 6.01328,4.38063 10.31328,4.38063c4.3,0 7.96282,-1.73636 10.31328,-4.38063c2.35046,-2.64426 3.44672,-6.03493 3.44672,-9.37937c0,-3.34444 -1.09626,-6.73511 -3.44672,-9.37937c-2.35046,-2.64427 -6.01328,-4.38063 -10.31328,-4.38063c-3.04701,0 -5.7478,0.9026 -7.91469,2.35156zM86,72.24c2.58,0 4.07718,0.84364 5.16672,2.06937c1.08954,1.22574 1.71328,2.99507 1.71328,4.81063c0,1.81556 -0.62374,3.58489 -1.71328,4.81063c-1.08954,1.22573 -2.58672,2.06937 -5.16672,2.06937c-2.58,0 -4.07718,-0.84364 -5.16672,-2.06937c-1.08954,-1.22574 -1.71328,-2.99507 -1.71328,-4.81063c0,-1.81556 0.62374,-3.58489 1.71328,-4.81063c1.08954,-1.22573 2.58672,-2.06937 5.16672,-2.06937zM82.56,99.71969c-5.77828,0 -11.89176,1.49747 -17.0186,4.7636c-4.61316,2.93888 -8.09416,7.69454 -9.52047,13.61219c-1.53939,0.86433 -4.46125,2.83799 -4.46125,7.46453c0,1.9593 0.98617,3.59397 2.10969,5.0525l-1.70656,4.71656c-1.62837,4.50236 2.17111,9.19125 6.81281,9.19125h9.74219c1.46346,-0.00272 2.76867,-0.9212 3.26531,-2.29781l2.89578,-8.02219h15.76219l2.89578,8.02219c0.49664,1.37661 1.80186,2.29509 3.26531,2.29781h9.74219c4.64171,0 8.44118,-4.68889 6.81281,-9.19125l-0.57781,-1.59906c4.76543,-1.11603 8.89549,-4.26614 11.13969,-8.75453v-0.00672l2.27094,-4.52844h4.73c0.92321,0.00056 1.80877,-0.36593 2.46158,-1.01874c0.65281,-0.65281 1.0193,-1.53837 1.01874,-2.46158v-8.80828c0,-4.6159 -3.81614,-8.43203 -8.43203,-8.43203h-4.945c-3.85124,0 -7.23914,2.64998 -8.17672,6.38281c-0.00001,0.00448 -0.00001,0.00896 0,0.01344c-0.00224,0.00224 -0.00448,0.00448 -0.00672,0.00672c-0.73809,2.94656 -2.77535,5.26502 -5.39516,6.46344c-1.82831,-3.38532 -4.42967,-6.16167 -7.54515,-8.11625c-5.19088,-3.25664 -11.36125,-4.75016 -17.13953,-4.75016zM82.56,106.68031c4.54172,0 9.5879,1.26251 13.44422,3.68187c3.85632,2.41936 6.5174,5.76398 7.18906,10.52156c0.16042,1.13426 0.86905,2.11679 1.89469,2.62703c0,0 1.51172,0.92778 1.51172,2.04922c0,0.98359 -0.69609,1.67969 -1.67969,1.67969h-11.50922c-0.36716,-0.05927 -0.74144,-0.05927 -1.1086,0h-19.51797c-0.34957,-0.05363 -0.70527,-0.05363 -1.05485,0h-11.52937c-0.98359,0 -1.67969,-0.69609 -1.67969,-1.67969c0,-0.93596 1.69312,-2.00219 1.69312,-2.00219c1.07458,-0.49509 1.82379,-1.50248 1.98875,-2.67406c0.6754,-4.78407 3.29207,-8.12513 7.07485,-10.535c3.78277,-2.40987 8.74125,-3.66844 13.28297,-3.66844zM120.82328,106.68031h4.945c0.8537,0 1.4714,0.6177 1.4714,1.4714v5.32797h-3.39969c-1.31711,-0.00014 -2.52132,0.74371 -3.11078,1.92156l-3.23172,6.45672c0,0.00224 0,0.00448 0,0.00672c-0.89579,1.79295 -2.3079,3.20571 -3.99094,4.13875c0.01176,-0.14996 0.05375,-0.28954 0.05375,-0.44344c0,-3.67687 -1.8138,-5.638 -3.27203,-6.7389c4.42765,-2.08584 7.86174,-6.047 9.1039,-11.01875c0.17011,-0.67725 0.74153,-1.12203 1.4311,-1.12203zM59.82375,134.04578c0.1439,0.00722 0.23069,0.15453 0.37625,0.15453h7.08156l-1.20938,3.35937h-7.29656c-0.17912,0 -0.20724,0.02116 -0.23516,0.04031zM105.29625,134.04578l1.28328,3.55422c-0.02791,-0.01915 -0.05603,-0.04031 -0.23516,-0.04031h-7.29656l-1.20938,-3.35937h7.08156c0.14555,0 0.23234,-0.1472 0.37625,-0.15453z">
</path></g></g></svg>