<svg xmlns="http://www.w3.org/2000/svg" x="0px" y="0px"
    width="50" height="50"
    viewBox="0 0 172 172"
    style="fill:none;"><g fill="none">
    
    <g fill="#ffffff"><path d="M30.8525,23.98594c-2.10969,0.02688 -4.09844,1.03469 -5.375,2.72781l-16.58187,16.58188c-1.80063,1.72 -2.52625,4.28656 -1.89469,6.70531c0.63156,2.40531 2.51281,4.28656 4.91813,4.91813c2.41875,0.63156 4.98531,-0.09406 6.70531,-1.89469l5.45562,-5.45563v59.07125c0,18.89313 15.50688,34.4 34.4,34.4c18.89313,0 34.4,-15.50687 34.4,-34.4v-41.28c0,-11.38156 9.25844,-20.64 20.64,-20.64c11.38156,0 20.64,9.25844 20.64,20.64v59.15188l-5.41531,-5.50938c-1.29,-1.33031 -3.06375,-2.09625 -4.91812,-2.10969c-2.80844,-0.02688 -5.33469,1.65281 -6.40969,4.24625c-1.075,2.58 -0.47031,5.56312 1.51844,7.53844l17.2,17.45531c1.29,1.31687 3.06375,2.05594 4.90469,2.05594c1.84094,0 3.61469,-0.73906 4.90469,-2.05594l17.2,-17.45531c2.67406,-2.71437 2.63375,-7.06812 -0.06719,-9.74219c-2.71437,-2.67406 -7.06812,-2.63375 -9.74219,0.06719l-5.41531,5.50938v-59.15188c0,-18.89312 -15.50687,-34.4 -34.4,-34.4c-0.84656,0.01344 -1.69312,0.18813 -2.48594,0.51063c-17.68375,1.34375 -31.91406,15.88312 -31.91406,33.88937v41.28c0,11.38156 -9.25844,20.64 -20.64,20.64c-11.38156,0 -20.64,-9.25844 -20.64,-20.64v-59.07125l5.45563,5.45563c1.72,1.80062 4.28656,2.52625 6.70531,1.89469c2.40531,-0.63156 4.28656,-2.51281 4.91813,-4.91813c0.63156,-2.41875 -0.09406,-4.98531 -1.89469,-6.70531l-16.60875,-16.60875c-1.31688,-1.73344 -3.38625,-2.72781 -5.56313,-2.70094z">
    </path></g></g></svg>